PathFileType  4	(X/Y/Z) C:\Users\antoi\Documents\MyRepositories\mobilecap\ResultsAnalysis
DataRate	CameraRate	NumFrames	NumMarkers	Units	OrigDataRate	OrigDataStartFrame	OrigNumFrames
100.0	100.0	4	51	mm	100.0	50	197
Frame#	Time	r_knee			r_shank_antsup			r_ankle			r_calc			r_5meta			r_toe			L_knee			L_shank_antsup			L_ankle			L_calc			L_5meta			L_toe			r_sh2			r_sh3			r_sh4			L_sh2			L_sh3			r_thigh1			r_thigh2			r_thigh3			r_thigh4			r_thigh5			L_thigh1			L_thigh2			L_thigh3			L_thigh4			r.ASIS			r.PSIS			L.ASIS			L.PSIS			C7			R_Shoulder			L_Shoulder			R_Sternum			L_Sternum			R_humerus			R_elbow_med			R_elbow_lat			R_forearm			R_wrist_radius			R_wrist_ulna			L_humerus			L_elbow_med			L_elbow_lat			L_forearm			L_wrist_radius			L_wrist_ulna			R_HJC			L_HJC			R_HJC_reg			L_HJC_reg			
		X1	Y1	Z1	X2	Y2	Z2	X3	Y3	Z3	X4	Y4	Z4	X5	Y5	Z5	X6	Y6	Z6	X7	Y7	Z7	X8	Y8	Z8	X9	Y9	Z9	X10	Y10	Z10	X11	Y11	Z11	X12	Y12	Z12	X13	Y13	Z13	X14	Y14	Z14	X15	Y15	Z15	X16	Y16	Z16	X17	Y17	Z17	X18	Y18	Z18	X19	Y19	Z19	X20	Y20	Z20	X21	Y21	Z21	X22	Y22	Z22	X23	Y23	Z23	X24	Y24	Z24	X25	Y25	Z25	X26	Y26	Z26	X27	Y27	Z27	X28	Y28	Z28	X29	Y29	Z29	X30	Y30	Z30	X31	Y31	Z31	X32	Y32	Z32	X33	Y33	Z33	X34	Y34	Z34	X35	Y35	Z35	X36	Y36	Z36	X37	Y37	Z37	X38	Y38	Z38	X39	Y39	Z39	X40	Y40	Z40	X41	Y41	Z41	X42	Y42	Z42	X43	Y43	Z43	X44	Y44	Z44	X45	Y45	Z45	X46	Y46	Z46	X47	Y47	Z47	X48	Y48	Z48	X49	Y49	Z49	X50	Y50	Z50	X51	Y51	Z51	

50	0.49000000	126.92402	466.80166	-118.93004	173.95005	411.57365	-133.65297	149.79772	81.32844	-151.27371	94.76666	54.51059	-192.09028	261.38663	41.56901	-133.10159	300.03104	65.47005	-187.64399	-133.00065	444.21951	-380.63988	-159.30562	354.04646	-370.09028	-419.40515	179.23429	-340.65229	-475.63642	211.26455	-296.20432	-406.35031	55.80243	-339.26883	-354.40607	43.14749	-288.70199	175.67621	299.35890	-128.16936	110.69705	412.16244	-91.01749	101.84178	295.63927	-88.82941	-206.44460	425.38696	-400.69778	-301.20027	347.44563	-399.12610	97.59825	712.42733	-64.25506	132.89105	606.45195	-87.72852	78.56737	564.52358	-80.87419	-11.39061	673.21106	-59.00372	23.20796	567.72975	-95.27798	-20.04183	701.48162	-422.01835	-44.68236	565.57683	-401.56377	-130.03762	721.01627	-417.48552	-154.41417	594.46207	-372.64029	82.80778	904.25911	-137.97471	-139.12200	933.90760	-192.67175	60.53701	884.20656	-359.98776	-139.94267	931.08684	-273.44208	-56.97364	1369.08693	-237.06727	0.31451	1333.51872	-94.74537	-18.44555	1339.07702	-376.44080	70.73097	1300.54180	-218.20265	66.89283	1299.94914	-258.67439	16.33557	1220.06563	-31.76121	-91.80633	1025.33168	-30.52373	-50.65950	1032.62771	22.00266	7.58585	958.64633	35.34539	41.82711	816.15565	38.75333	13.91146	814.74560	66.56334	-28.05342	1240.26307	-451.95381	-115.08702	1031.04852	-436.97355	-91.50223	1049.70026	-495.81671	-43.39080	956.33802	-524.67990	-22.56087	830.38299	-531.59492	-56.61326	828.99323	-552.57704	-4.61568	819.60575	-129.26696	-25.00893	804.99211	-335.22682	0.52535	828.49697	-164.65888	-0.98262	823.33733	-312.42998	
51	0.50000000	133.63557	467.13024	-119.33294	179.70758	411.14546	-133.80983	150.11059	81.59770	-152.10195	94.83171	54.76934	-192.38099	261.48351	41.77276	-133.38015	300.42662	64.78749	-188.22071	-109.75974	441.77873	-384.28078	-137.81988	352.34348	-373.56336	-402.99484	186.39971	-343.64305	-456.36634	223.44990	-299.28867	-399.65074	62.21173	-340.93981	-347.88650	46.30472	-290.71092	179.77334	298.87515	-128.65332	116.40774	412.53902	-91.74139	105.59612	296.06560	-89.72061	-183.09550	424.73177	-404.39771	-279.98548	349.57363	-402.20968	108.60933	713.25023	-64.04951	142.24086	606.60799	-87.82669	87.30821	565.65433	-80.67253	-0.64323	675.58050	-57.60174	31.92246	569.91724	-94.39826	-3.81851	702.04787	-421.57225	-24.66818	565.19152	-403.15829	-114.42992	718.68680	-417.85159	-135.27938	590.53561	-375.14264	94.30338	906.83023	-136.06593	-127.74568	935.52750	-193.51666	72.77368	885.57959	-357.91345	-128.20494	932.16727	-274.47371	-46.05368	1370.92740	-234.62852	11.41602	1334.56853	-92.69020	-7.45078	1342.34498	-374.18295	81.76133	1302.89287	-216.23097	77.93993	1302.45217	-256.72817	28.14614	1220.84778	-30.47172	-79.01404	1025.55555	-30.15948	-37.81027	1032.68686	22.31385	21.03821	959.04271	34.91378	56.53632	816.85843	37.00014	28.35697	814.92524	64.87698	-17.59184	1244.39145	-450.60033	-105.40370	1035.64504	-436.78965	-82.02272	1054.48083	-495.68316	-34.25612	961.16465	-525.30333	-13.61932	835.26368	-533.09325	-48.10297	834.20699	-554.08727	6.38520	822.06308	-127.87770	-12.10738	806.08459	-333.93420	12.19570	830.87696	-162.59422	11.35597	824.74815	-310.25704	
52	0.51000000	139.13637	467.45067	-119.81666	184.50441	410.93939	-133.96578	150.16483	82.06243	-152.93004	94.77418	55.06527	-192.69690	261.35948	42.28601	-133.62682	300.65448	64.49789	-188.79380	-86.14610	439.73343	-387.84257	-115.66666	351.25768	-376.82649	-385.33960	193.59542	-346.57366	-435.72650	234.91030	-302.07175	-390.91893	69.38047	-342.92851	-339.24077	50.38798	-293.12203	183.09716	298.62089	-129.07705	120.87647	412.97260	-92.53848	108.43145	296.52842	-90.75106	-159.13387	424.20245	-407.99655	-257.86522	351.60740	-405.26086	118.56853	713.84043	-63.84082	150.34966	606.49567	-87.95471	94.68756	566.67628	-80.78116	8.98447	678.09033	-56.89394	39.41368	572.04095	-94.04368	11.96761	703.07826	-421.29988	-4.93840	565.42241	-404.82819	-98.97064	716.43432	-418.21631	-115.92780	586.76418	-377.49365	105.48577	909.25809	-134.23346	-116.48924	937.09548	-193.88036	84.59046	887.32977	-355.92024	-116.86418	933.29911	-275.03507	-35.30675	1372.71167	-232.29452	22.23417	1335.77597	-90.77545	2.93634	1345.67994	-372.05986	92.46126	1305.47457	-214.47568	88.60766	1305.17551	-255.05271	39.64585	1221.87595	-29.21258	-66.31835	1025.79090	-29.67892	-25.28203	1033.01621	22.65366	34.29426	959.76282	34.50634	71.13096	818.03833	35.24537	42.65951	815.47531	63.22699	-7.75803	1248.56801	-449.39865	-95.76312	1039.95317	-436.81497	-72.46113	1059.03369	-495.68728	-25.13228	966.00839	-526.00043	-4.31182	840.07071	-534.57819	-39.23604	839.30544	-555.52106	17.28510	824.32387	-126.57163	0.35183	807.46815	-332.70969	23.77422	833.30103	-160.46886	23.09702	826.39898	-307.99575	
53	0.52000000	143.76057	467.83898	-120.26015	188.60769	410.94484	-134.13824	150.03268	82.64757	-153.67600	94.66858	55.35004	-192.99395	261.07563	42.98781	-133.80651	300.74577	64.49673	-189.29722	-62.26455	438.18970	-391.26449	-92.97149	350.78853	-379.83063	-366.53254	200.67686	-349.40100	-414.18265	245.27435	-304.54662	-379.57814	76.94675	-345.30674	-327.90595	55.26577	-295.93311	185.89706	298.59520	-129.43236	124.56101	413.52343	-93.21670	110.73996	297.09068	-91.65269	-134.69311	423.88554	-411.43692	-234.99899	353.60667	-408.29022	127.61686	714.35303	-63.64858	157.48310	606.33355	-88.08324	101.03836	567.70993	-81.04777	17.65572	680.72073	-56.71331	45.92861	574.16747	-93.99546	27.34125	704.55504	-421.18826	14.47685	566.28565	-406.53348	-83.67958	714.34229	-418.50793	-96.42990	583.29452	-379.59089	116.32357	911.42272	-132.61754	-105.36073	938.67634	-193.70273	95.94287	889.35952	-354.15302	-105.92403	934.51630	-275.05298	-24.73974	1374.44334	-230.05565	32.82526	1337.08778	-88.98565	12.77859	1349.01969	-370.07335	102.86848	1308.19699	-212.92178	98.93659	1308.03892	-253.61174	50.90970	1223.08347	-27.99315	-53.68919	1026.01993	-29.11567	-12.98867	1033.54145	23.00969	47.41120	960.72606	34.10426	85.63107	819.57140	33.47965	56.89436	816.32475	61.59766	1.51739	1252.69258	-448.31610	-86.18135	1043.91331	-437.04049	-62.81938	1063.29754	-495.80627	-15.97298	970.76731	-526.74755	5.33922	844.72857	-536.03966	-29.97447	844.20279	-556.90494	28.06779	826.32533	-125.40725	12.22060	809.11234	-331.61232	35.16077	835.75667	-158.40302	34.15095	828.21956	-305.76855	
